Coordinates
version=1
nRows=6
nColumns=63
inDegrees=yes

Units are S.I. units (second, meters, Newtons, ...)
If the header above contains a line with 'inDegrees', this indicates whether rotational values are in degrees (yes) or radians (no).

endheader
time	pelvis_tilt	pelvis_list	pelvis_rotation	pelvis_tx	pelvis_ty	pelvis_tz	hip_flexion_r	hip_adduction_r	hip_rotation_r	knee_angle_r	knee_angle_r_beta	ankle_angle_r	subtalar_angle_r	mtp_angle_r	hip_flexion_l	hip_adduction_l	hip_rotation_l	knee_angle_l	knee_angle_l_beta	ankle_angle_l	subtalar_angle_l	mtp_angle_l	L5_S1_Flex_Ext	L5_S1_Lat_Bending	L5_S1_axial_rotation	L4_L5_Flex_Ext	L4_L5_Lat_Bending	L4_L5_axial_rotation	L3_L4_Flex_Ext	L3_L4_Lat_Bending	L3_L4_axial_rotation	L2_L3_Flex_Ext	L2_L3_Lat_Bending	L2_L3_axial_rotation	L1_L2_Flex_Ext	L1_L2_Lat_Bending	L1_L2_axial_rotation	L1_T12_Flex_Ext	L1_T12_Lat_Bending	L1_T12_axial_rotation	Abs_r3	Abs_r2	Abs_r1	Abs_t1	Abs_t2	neck_flexion	neck_bending	neck_rotation	arm_flex_r	arm_add_r	arm_rot_r	elbow_flex_r	pro_sup_r	wrist_flex_r	wrist_dev_r	arm_flex_l	arm_add_l	arm_rot_l	elbow_flex_l	pro_sup_l	wrist_flex_l	wrist_dev_l
1.266667	3.796287	-2.913851	102.851179	0.237460	1.011565	0.392144	-1.262137	4.720276	-3.850256	0.829819	0.014483	22.639464	-7.304651	0.000000	1.550466	-5.173245	-2.177107	2.972673	0.051883	26.280489	14.246187	0.000000	-0.056102	0.371253	-3.041568	-0.104188	0.493766	-3.231666	-0.092170	0.902664	-3.231666	-0.064119	0.902664	-2.661372	-0.052097	0.757058	-2.471274	-0.032057	0.575070	-2.281176	-0.400733	4.199684	-16.916287	0.000000	0.000000	20.755352	0.680956	-2.668646	43.592074	4.322482	18.828747	141.663961	83.256645	22.556515	11.658238	-18.344382	-4.683874	-4.793395	128.337597	85.304757	-12.060600	1.656508
1.283333	3.655479	-2.915469	102.991111	0.237388	1.011488	0.391677	-1.320360	4.588705	-4.112168	0.808606	0.014113	22.834104	-7.075377	0.000000	1.512623	-5.030510	-2.061177	2.957513	0.051618	26.285412	14.250766	0.000000	-0.054498	0.346822	-2.976388	-0.101208	0.461273	-3.162413	-0.089535	0.843263	-3.162413	-0.062286	0.843263	-2.604340	-0.050607	0.707239	-2.418316	-0.031140	0.537227	-2.232291	-0.389274	3.923320	-16.553780	0.000000	0.000000	20.804007	0.710760	-3.444526	43.165950	3.964973	18.728751	141.918951	83.027783	22.201063	11.925723	-18.109400	-5.455899	-4.054179	128.234668	84.818067	-11.878440	1.931639
1.300000	3.547164	-2.884808	103.114365	0.237189	1.011463	0.391294	-1.401347	4.486294	-4.301826	0.792176	0.013826	22.986881	-6.923014	0.000000	1.449928	-4.917639	-1.960398	2.938631	0.051289	26.308070	14.241904	0.000000	-0.054474	0.329806	-2.917948	-0.101163	0.438642	-3.100320	-0.089495	0.801889	-3.100320	-0.062258	0.801889	-2.553205	-0.050584	0.672540	-2.370833	-0.031126	0.510869	-2.188461	-0.389100	3.730828	-16.228752	0.000000	0.000000	20.763943	0.685879	-4.060738	42.764060	3.579895	18.576422	142.047001	82.948021	21.796271	12.104093	-17.853276	-6.229444	-3.378636	128.073863	84.225260	-11.714279	2.168853
1.316667	3.475433	-2.826244	103.213286	0.236891	1.011464	0.391003	-1.499351	4.416467	-4.436053	0.780043	0.013614	23.109964	-6.813299	0.000000	1.369148	-4.839922	-1.882571	2.921577	0.050991	26.353700	14.226065	0.000000	-0.056290	0.320012	-2.876214	-0.104537	0.425616	-3.055977	-0.092479	0.778077	-3.055977	-0.064334	0.778077	-2.516687	-0.052271	0.652568	-2.336924	-0.032164	0.495698	-2.157160	-0.402076	3.620039	-15.996638	0.000000	0.000000	20.671071	0.625593	-4.511733	42.408907	3.233385	18.299831	142.017353	82.972176	21.587016	12.330857	-17.625920	-6.927226	-2.832084	127.912238	83.619466	-11.638915	2.385158
1.333333	3.443062	-2.739637	103.262812	0.236527	1.011491	0.390796	-1.614566	4.382724	-4.408617	0.771692	0.013469	23.152807	-6.881149	0.000000	1.261484	-4.800590	-1.823847	2.900290	0.050620	26.413981	14.166320	0.000000	-0.059679	0.317351	-2.843833	-0.110829	0.422077	-3.021573	-0.098046	0.771607	-3.021573	-0.068207	0.771607	-2.488354	-0.055418	0.647142	-2.310614	-0.034100	0.491577	-2.132875	-0.426279	3.589937	-15.816546	0.000000	0.000000	20.526574	0.501491	-4.840610	42.100750	2.844743	18.006756	141.846298	83.154860	21.023622	12.456671	-17.415467	-7.512400	-2.407115	127.744432	83.040284	-11.592672	2.570394
1.350000	3.461125	-2.638018	103.305599	0.236075	1.011496	0.390698	-1.730293	4.395363	-4.360121	0.767074	0.013388	23.175680	-6.967076	0.000000	1.153458	-4.809755	-1.741708	2.880838	0.050280	26.493785	14.073481	0.000000	-0.063696	0.323856	-2.840412	-0.118289	0.430729	-3.017938	-0.104646	0.787425	-3.017938	-0.072798	0.787425	-2.485360	-0.059148	0.660408	-2.307835	-0.036396	0.501654	-2.130309	-0.454972	3.663529	-15.797519	0.000000	0.000000	20.401120	0.358038	-4.878685	41.875433	2.521209	17.619560	141.461896	83.379496	20.594401	12.607560	-17.285361	-7.889695	-2.180470	127.625550	82.538163	-11.667524	2.718630
